<svg xmlns="http://www.w3.org/2000/svg" viewBox="0 0 153.37 20.54"><defs><style>.a{fill:#fff;}</style></defs><title>1</title><path class="a" d="M8.05,22.71A9.84,9.84,0,0,1,4.23,19a10.2,10.2,0,0,1-1.38-5.28A10.11,10.11,0,0,1,4.24,8.48,9.87,9.87,0,0,1,8.08,4.82a11.21,11.21,0,0,1,5.47-1.33A11.35,11.35,0,0,1,18,4.35a9.1,9.1,0,0,1,3.43,2.48l-2.4,2.25a7,7,0,0,0-5.33-2.34,7.46,7.46,0,0,0-3.68.9,6.37,6.37,0,0,0-2.54,2.5,7.14,7.14,0,0,0-.92,3.62,7.2,7.2,0,0,0,.92,3.63A6.41,6.41,0,0,0,10,19.88a7.46,7.46,0,0,0,3.68.9,6.93,6.93,0,0,0,5.33-2.37l2.4,2.29A9.14,9.14,0,0,1,18,23.18a11.52,11.52,0,0,1-4.49.86A11.32,11.32,0,0,1,8.05,22.71Z" transform="translate(-2.85 -3.49)"/><path class="a" d="M28.41,22.71A9.81,9.81,0,0,1,24.56,19a10.16,10.16,0,0,1-1.4-5.27,10.12,10.12,0,0,1,1.4-5.26,9.74,9.74,0,0,1,3.85-3.68,11.34,11.34,0,0,1,5.51-1.33,11.37,11.37,0,0,1,5.51,1.33,9.83,9.83,0,0,1,3.85,3.66,10.12,10.12,0,0,1,1.4,5.28A10.12,10.12,0,0,1,43.28,19a9.92,9.92,0,0,1-3.85,3.67,12.08,12.08,0,0,1-11,0Zm9.1-2.83A6.38,6.38,0,0,0,40,17.37a7.18,7.18,0,0,0,.92-3.61A7.21,7.21,0,0,0,40,10.15a6.44,6.44,0,0,0-2.51-2.51,7.63,7.63,0,0,0-7.19,0,6.58,6.58,0,0,0-2.51,2.51,7.2,7.2,0,0,0-.91,3.61,7.17,7.17,0,0,0,.91,3.61,6.51,6.51,0,0,0,2.51,2.51,7.63,7.63,0,0,0,7.19,0Z" transform="translate(-2.85 -3.49)"/><path class="a" d="M67,23.75l0-13.24-6.56,11H58.71L52.15,10.68V23.75H48.61v-20h3.06L59.6,17,67.39,3.78h3l0,20Z" transform="translate(-2.85 -3.49)"/><path class="a" d="M88.6,4.63a6.57,6.57,0,0,1,3,2.46,6.88,6.88,0,0,1,1,3.79,6.9,6.9,0,0,1-1,3.78,6.53,6.53,0,0,1-3,2.47,11,11,0,0,1-4.52.86H79.57v5.76H75.86v-20h8.22A11,11,0,0,1,88.6,4.63Zm-1,9.19a3.56,3.56,0,0,0,1.26-2.94,3.59,3.59,0,0,0-1.26-2.94,5.72,5.72,0,0,0-3.68-1H79.57v7.94h4.34A5.72,5.72,0,0,0,87.59,13.82Z" transform="translate(-2.85 -3.49)"/><path class="a" d="M108.25,19.13h-10l-2,4.62H92.47l9-20h3.65l9,20h-3.88ZM107,16.22l-3.76-8.73-3.74,8.73Z" transform="translate(-2.85 -3.49)"/><path class="a" d="M134.42,3.78v20h-3.06l-11-13.53V23.75h-3.68v-20h3l11,13.52V3.78Z" transform="translate(-2.85 -3.49)"/><path class="a" d="M148.4,16.7v7.05h-3.71v-7l-7.85-13h4l5.85,9.73,5.9-9.73h3.66Z" transform="translate(-2.85 -3.49)"/></svg>